<?xml version="1.0" standalone="no"?>
<!DOCTYPE svg PUBLIC "-//W3C//DTD SVG 20010904//EN"
 "http://www.w3.org/TR/2001/REC-SVG-20010904/DTD/svg10.dtd">
<svg version="1.0" xmlns="http://www.w3.org/2000/svg"
 width="228.000000pt" height="228.000000pt" viewBox="0 0 228.000000 228.000000"
 preserveAspectRatio="xMidYMid meet">
<metadata>
Created by potrace 1.11, written by Peter Selinger 2001-2013
</metadata>
<g transform="translate(0.000000,228.000000) scale(0.100000,-0.100000)"
fill="#000000" stroke="none">
<path d="M1100 2260 c-26 -6 -50 -41 -50 -73 0 -10 12 -30 26 -44 27 -27 20
-43 -18 -43 -10 0 -18 -4 -18 -10 0 -5 -3 -9 -7 -8 -12 4 -54 -28 -46 -35 3
-4 -1 -7 -10 -7 -9 0 -17 -3 -16 -7 2 -13 -13 -53 -20 -53 -11 0 -12 -84 0
-126 21 -78 114 -143 194 -137 59 4 65 6 65 13 0 4 6 7 14 7 23 0 73 46 90 84
23 51 28 116 11 156 -8 18 -12 33 -9 33 3 0 -12 18 -33 39 -26 26 -55 44 -85
52 l-46 13 29 27 c29 27 32 46 14 91 -11 27 -45 38 -85 28z"/>
<path d="M858 1814 c-25 -13 -43 -54 -36 -85 2 -8 12 -21 23 -29 20 -15 24
-16 46 -19 15 -2 6 -24 -12 -27 -7 -1 -27 -8 -44 -15 -16 -7 -32 -13 -35 -13
-3 -1 -36 -22 -75 -48 -73 -48 -133 -102 -175 -157 -14 -18 -30 -38 -36 -45
-19 -20 -97 -187 -90 -193 3 -3 1 -11 -4 -18 -5 -7 -12 -27 -14 -46 -3 -19 -5
-34 -6 -34 -1 0 -3 -9 -6 -20 -8 -37 -3 -250 6 -250 1 0 4 -16 7 -35 2 -19 9
-39 14 -45 5 -5 9 -15 9 -22 0 -17 41 -106 53 -114 5 -3 7 -9 5 -12 -1 -4 6
-17 17 -29 10 -13 18 -24 16 -26 -3 -4 55 -76 76 -96 7 -6 26 -23 41 -37 38
-34 118 -89 131 -89 6 0 11 -4 11 -9 0 -5 8 -11 18 -14 9 -3 44 -15 77 -27 60
-22 69 -24 135 -37 70 -13 239 -6 302 13 9 3 26 7 38 9 11 2 35 11 52 19 17 9
34 13 39 10 5 -3 9 -2 9 3 0 4 25 21 55 38 30 16 55 33 55 38 0 4 4 6 8 3 5
-3 15 4 22 15 8 10 20 19 27 19 7 0 13 3 13 8 0 4 24 32 53 63 28 30 61 72 72
92 11 20 23 37 28 37 4 0 5 5 2 10 -3 6 -2 10 3 10 5 0 17 25 27 55 11 30 22
55 25 55 3 0 6 8 6 18 1 9 5 33 9 52 5 19 8 45 8 58 -1 12 2 22 6 22 7 0 5
134 -2 200 -2 19 -10 55 -17 80 -8 25 -13 48 -12 53 1 4 -2 7 -6 7 -5 0 -9 6
-9 13 0 20 -52 123 -74 146 -11 12 -17 26 -13 33 4 7 3 8 -4 4 -7 -4 -12 -3
-12 2 0 9 -93 104 -139 142 -41 34 -180 106 -224 116 -30 7 -39 9 -62 16 -11
4 -42 9 -69 13 -27 3 -53 8 -58 11 -4 3 -8 0 -8 -6 0 -7 -6 -8 -19 -1 -10 6
-20 9 -22 7 -2 -2 -26 -7 -54 -10 -51 -5 -77 -10 -129 -21 -25 -5 -27 -4 -13
10 9 8 20 15 25 15 6 0 13 14 17 31 11 50 -15 84 -71 95 -5 1 -22 -5 -36 -12z"/>
<path d="M1342 1822 c-27 -4 -56 -56 -48 -87 7 -29 34 -57 47 -50 5 4 9 0 9
-7 0 -8 3 -9 8 -3 4 6 16 10 26 10 10 0 28 12 39 26 17 23 18 31 8 62 -15 43
-40 57 -89 49z"/>
<path d="M359 623 c-33 -23 -39 -34 -35 -63 3 -14 5 -30 5 -36 1 -13 45 -34
72 -34 11 0 31 12 46 26 60 60 -18 155 -88 107z"/>
<path d="M1827 622 c-14 -9 -28 -26 -32 -39 -8 -32 4 -73 21 -73 8 0 14 -4 14
-9 0 -5 11 -11 25 -14 29 -5 85 39 85 68 0 22 -31 75 -45 76 -5 0 -17 2 -26 4
-9 1 -27 -4 -42 -13z"/>
<path d="M383 471 c-41 -16 -105 -74 -117 -106 -15 -41 -18 -98 -6 -141 7 -24
17 -44 21 -44 5 0 9 -5 9 -11 0 -12 41 -47 80 -67 31 -16 160 -18 160 -2 0 4
11 12 25 18 28 13 87 90 79 103 -3 5 2 9 10 9 8 0 13 -6 11 -12 -7 -19 19 -47
46 -50 13 -2 27 -7 30 -11 8 -11 56 29 64 53 7 23 -21 94 -35 85 -5 -3 -10 -2
-10 2 0 5 -11 10 -25 11 -14 1 -25 -3 -25 -9 0 -5 -4 -7 -10 -4 -5 3 -10 3
-10 -2 0 -4 -8 -18 -18 -31 l-17 -22 2 37 c3 56 -17 103 -64 149 -31 31 -54
44 -85 50 -67 12 -74 11 -115 -5z"/>
<path d="M1786 483 c-4 -5 -11 -8 -14 -9 -34 -4 -66 -22 -98 -55 -22 -22 -38
-43 -38 -47 1 -4 -3 -18 -8 -32 -5 -14 -8 -40 -6 -57 2 -18 0 -33 -4 -33 -4 0
-8 6 -8 14 0 19 -20 33 -57 39 -58 9 -101 -59 -69 -109 19 -29 58 -47 67 -31
4 5 11 7 15 4 16 -9 46 21 48 47 0 14 2 26 3 26 2 0 11 -17 22 -37 20 -39 58
-78 99 -101 26 -14 117 -18 147 -5 42 17 85 48 85 60 0 7 4 13 9 13 4 0 15 19
24 43 20 53 14 132 -13 169 -11 15 -20 33 -20 39 0 7 -3 10 -6 7 -3 -3 -16 5
-30 17 -14 13 -44 26 -67 30 -23 4 -49 8 -58 11 -8 2 -19 1 -23 -3z"/>
<path d="M210 162 c-27 -10 -43 -33 -45 -68 -2 -28 3 -39 27 -58 29 -22 78
-25 78 -4 0 5 4 7 9 4 17 -11 33 46 24 82 -8 32 -58 56 -93 44z"/>
<path d="M1985 142 c-33 -32 -28 -76 11 -108 25 -21 74 -22 74 -2 0 5 4 7 9 4
5 -3 14 8 21 24 32 77 -57 140 -115 82z"/>
</g>
</svg>
